<svg width="315" height="184" viewBox="0 0 315 184" fill="none" xmlns="http://www.w3.org/2000/svg">
<rect width="315" height="184" rx="30" fill="url(#paint0_linear_213_74)"/>
<mask id="mask0_213_74" style="mask-type:alpha" maskUnits="userSpaceOnUse" x="0" y="0" width="315" height="184">
<rect width="315" height="184" rx="30" fill="#BE82DD"/>
</mask>
<g mask="url(#mask0_213_74)">
<ellipse opacity="0.1" cx="24.5" cy="213" rx="160.5" ry="113" fill="black"/>
<ellipse opacity="0.08" cx="290.5" cy="-29" rx="160.5" ry="113" fill="black"/>
</g>
<path d="M248.657 149.76L245.451 150.81L245.815 152.112L247.691 151.51V159H249.175V149.76H248.657ZM254.43 157.712L256.054 155.99C256.698 155.304 257.188 154.716 257.51 154.198C257.846 153.68 258.014 153.106 258.014 152.476C258.014 150.852 256.712 149.606 254.948 149.606C253.058 149.606 251.84 151.048 251.84 152.56C251.84 152.84 251.868 153.106 251.938 153.358H253.436C253.394 153.078 253.366 152.84 253.366 152.644C253.366 151.692 253.996 150.964 254.934 150.964C255.872 150.964 256.474 151.65 256.474 152.588C256.474 153.372 256.026 154.044 255.004 155.122L251.714 158.664V159H258.336V157.712H254.43ZM259.652 160.694H261.29L268.612 148.08H266.974L259.652 160.694ZM271.987 157.712L273.611 155.99C274.255 155.304 274.745 154.716 275.067 154.198C275.403 153.68 275.571 153.106 275.571 152.476C275.571 150.852 274.269 149.606 272.505 149.606C270.615 149.606 269.397 151.048 269.397 152.56C269.397 152.84 269.425 153.106 269.495 153.358H270.993C270.951 153.078 270.923 152.84 270.923 152.644C270.923 151.692 271.553 150.964 272.491 150.964C273.429 150.964 274.031 151.65 274.031 152.588C274.031 153.372 273.583 154.044 272.561 155.122L269.271 158.664V159H275.893V157.712H271.987ZM284.755 156.116H283.495V153.274H282.011V156.116H279.253L281.871 149.76H280.345L277.391 156.984V157.39H282.011V159H283.495V157.39H284.755V156.116Z" fill="white"/>
<path opacity="0.9" d="M37.14 156.018C37.14 154.156 35.642 153.134 33.99 153.134C33.57 153.134 33.178 153.176 32.814 153.26V151.09H36.622V149.76H31.358V154.408H33.486C34.844 154.408 35.614 154.996 35.614 156.046C35.614 157.11 34.802 157.796 33.696 157.796C32.702 157.796 32.016 157.278 31.456 156.424L30.42 157.166C31.05 158.356 32.212 159.154 33.738 159.154C35.572 159.154 37.14 157.88 37.14 156.018ZM41.6803 157.712L43.3043 155.99C43.9483 155.304 44.4383 154.716 44.7603 154.198C45.0963 153.68 45.2643 153.106 45.2643 152.476C45.2643 150.852 43.9623 149.606 42.1983 149.606C40.3083 149.606 39.0903 151.048 39.0903 152.56C39.0903 152.84 39.1183 153.106 39.1883 153.358H40.6863C40.6443 153.078 40.6163 152.84 40.6163 152.644C40.6163 151.692 41.2463 150.964 42.1843 150.964C43.1223 150.964 43.7243 151.65 43.7243 152.588C43.7243 153.372 43.2763 154.044 42.2543 155.122L38.9643 158.664V159H45.5863V157.712H41.6803ZM54 152.812C54.042 150.992 52.488 149.578 50.738 149.606C48.974 149.606 47.462 150.992 47.462 152.798C47.462 154.548 48.904 155.892 50.486 155.892C50.64 155.892 50.766 155.878 50.892 155.85L48.666 159H50.43L52.726 155.738C53.048 155.29 53.286 154.94 53.44 154.688C53.594 154.422 53.734 154.142 53.832 153.834C53.944 153.512 54 153.176 54 152.812ZM52.53 152.798C52.53 153.316 52.362 153.75 52.012 154.1C51.662 154.45 51.242 154.632 50.738 154.632C50.22 154.632 49.786 154.464 49.436 154.114C49.086 153.764 48.918 153.316 48.918 152.798C48.918 152.28 49.086 151.846 49.436 151.496C49.786 151.146 50.22 150.964 50.738 150.964C51.242 150.964 51.662 151.146 52.012 151.496C52.362 151.846 52.53 152.28 52.53 152.798ZM62.7273 156.116H61.4673V153.274H59.9833V156.116H57.2253L59.8433 149.76H58.3173L55.3633 156.984V157.39H59.9833V159H61.4673V157.39H62.7273V156.116ZM71.2565 157.712L72.8805 155.99C73.5245 155.304 74.0145 154.716 74.3365 154.198C74.6725 153.68 74.8405 153.106 74.8405 152.476C74.8405 150.852 73.5385 149.606 71.7745 149.606C69.8845 149.606 68.6665 151.048 68.6665 152.56C68.6665 152.84 68.6945 153.106 68.7645 153.358H70.2625C70.2205 153.078 70.1925 152.84 70.1925 152.644C70.1925 151.692 70.8225 150.964 71.7605 150.964C72.6985 150.964 73.3005 151.65 73.3005 152.588C73.3005 153.372 72.8525 154.044 71.8305 155.122L68.5405 158.664V159H75.1625V157.712H71.2565ZM84.0242 156.116H82.7642V153.274H81.2802V156.116H78.5222L81.1402 149.76H79.6142L76.6602 156.984V157.39H81.2802V159H82.7642V157.39H84.0242V156.116ZM91.6855 156.032C91.6855 155.234 91.4475 154.59 90.9715 154.1C90.4955 153.61 89.9215 153.302 89.2355 153.19L91.4755 150.166V149.76H85.7215V151.118H89.1655L87.0095 154.016V154.422H88.0315C89.3895 154.422 90.1595 154.996 90.1595 156.046C90.1595 157.096 89.3755 157.796 88.2695 157.796C87.3175 157.796 86.6595 157.278 86.0995 156.424L85.0635 157.152C85.6795 158.342 86.8135 159.154 88.3115 159.154C90.1315 159.154 91.6855 157.908 91.6855 156.032ZM100.039 155.962C100.039 154.212 98.6111 152.868 97.0011 152.868C96.8471 152.868 96.7211 152.882 96.5951 152.91L98.8211 149.76H97.0711L94.7611 153.022C94.4391 153.484 94.2011 153.834 94.0471 154.086C93.8931 154.338 93.7671 154.618 93.6551 154.94C93.5571 155.248 93.5011 155.584 93.5011 155.948C93.4591 157.768 95.0131 159.182 96.7631 159.154C98.5271 159.154 100.039 157.768 100.039 155.962ZM98.5691 155.962C98.5691 156.48 98.3871 156.928 98.0371 157.278C97.6871 157.628 97.2671 157.796 96.7631 157.796C96.2451 157.796 95.8251 157.628 95.4751 157.278C95.1251 156.928 94.9571 156.48 94.9571 155.962C94.9571 155.444 95.1251 155.01 95.4751 154.66C95.8251 154.31 96.2451 154.128 96.7631 154.128C97.2671 154.128 97.6871 154.31 98.0371 154.66C98.3871 155.01 98.5691 155.444 98.5691 155.962ZM113.19 156.116H111.93V153.274H110.446V156.116H107.688L110.306 149.76H108.78L105.826 156.984V157.39H110.446V159H111.93V157.39H113.19V156.116ZM114.166 149.76V151.09H118.506L114.432 159H116.042L120.508 150.166V149.76H114.166ZM128.35 156.592C128.35 155.416 127.566 154.646 126.348 154.198C127.37 153.652 127.916 152.938 127.916 151.972C127.916 151.23 127.636 150.642 127.09 150.236C126.544 149.816 125.844 149.606 125.004 149.606C124.15 149.606 123.45 149.816 122.89 150.236C122.344 150.642 122.064 151.23 122.064 151.972C122.064 152.966 122.624 153.652 123.632 154.198C122.4 154.646 121.63 155.416 121.63 156.592C121.63 158.146 123.016 159.154 125.004 159.154C126.978 159.154 128.35 158.146 128.35 156.592ZM123.478 152.028C123.478 151.286 124.108 150.824 125.004 150.824C125.886 150.824 126.502 151.286 126.502 152.028C126.502 152.714 126.04 153.078 124.99 153.526C123.94 153.064 123.478 152.7 123.478 152.028ZM126.852 156.536C126.852 157.376 126.194 157.922 125.004 157.922C123.814 157.922 123.128 157.376 123.128 156.536C123.128 155.71 123.758 155.276 124.99 154.842C126.222 155.29 126.852 155.696 126.852 156.536ZM130.432 154.296C130.432 157.026 131.594 159.154 133.96 159.154C136.34 159.154 137.474 157.026 137.474 154.296C137.474 152.882 137.18 151.748 136.578 150.894C135.99 150.04 135.122 149.606 133.96 149.606C132.798 149.606 131.93 150.04 131.328 150.908C130.726 151.762 130.432 152.896 130.432 154.296ZM135.934 154.31C135.934 156.494 135.318 157.796 133.96 157.796C132.602 157.796 131.972 156.494 131.972 154.31C131.972 152.084 132.63 150.964 133.96 150.964C135.276 150.964 135.934 152.084 135.934 154.31ZM146.612 157.712L148.236 155.99C148.88 155.304 149.37 154.716 149.692 154.198C150.028 153.68 150.196 153.106 150.196 152.476C150.196 150.852 148.894 149.606 147.13 149.606C145.24 149.606 144.022 151.048 144.022 152.56C144.022 152.84 144.05 153.106 144.12 153.358H145.618C145.576 153.078 145.548 152.84 145.548 152.644C145.548 151.692 146.178 150.964 147.116 150.964C148.054 150.964 148.656 151.65 148.656 152.588C148.656 153.372 148.208 154.044 147.186 155.122L143.896 158.664V159H150.518V157.712H146.612ZM159.38 156.116H158.12V153.274H156.636V156.116H153.878L156.496 149.76H154.97L152.016 156.984V157.39H156.636V159H158.12V157.39H159.38V156.116ZM167.293 155.962C167.293 154.212 165.865 152.868 164.255 152.868C164.101 152.868 163.975 152.882 163.849 152.91L166.075 149.76H164.325L162.015 153.022C161.693 153.484 161.455 153.834 161.301 154.086C161.147 154.338 161.021 154.618 160.909 154.94C160.811 155.248 160.755 155.584 160.755 155.948C160.713 157.768 162.267 159.182 164.017 159.154C165.781 159.154 167.293 157.768 167.293 155.962ZM165.823 155.962C165.823 156.48 165.641 156.928 165.291 157.278C164.941 157.628 164.521 157.796 164.017 157.796C163.499 157.796 163.079 157.628 162.729 157.278C162.379 156.928 162.211 156.48 162.211 155.962C162.211 155.444 162.379 155.01 162.729 154.66C163.079 154.31 163.499 154.128 164.017 154.128C164.521 154.128 164.941 154.31 165.291 154.66C165.641 155.01 165.823 155.444 165.823 155.962ZM175.838 156.592C175.838 155.416 175.054 154.646 173.836 154.198C174.858 153.652 175.404 152.938 175.404 151.972C175.404 151.23 175.124 150.642 174.578 150.236C174.032 149.816 173.332 149.606 172.492 149.606C171.638 149.606 170.938 149.816 170.378 150.236C169.832 150.642 169.552 151.23 169.552 151.972C169.552 152.966 170.112 153.652 171.12 154.198C169.888 154.646 169.118 155.416 169.118 156.592C169.118 158.146 170.504 159.154 172.492 159.154C174.466 159.154 175.838 158.146 175.838 156.592ZM170.966 152.028C170.966 151.286 171.596 150.824 172.492 150.824C173.374 150.824 173.99 151.286 173.99 152.028C173.99 152.714 173.528 153.078 172.478 153.526C171.428 153.064 170.966 152.7 170.966 152.028ZM174.34 156.536C174.34 157.376 173.682 157.922 172.492 157.922C171.302 157.922 170.616 157.376 170.616 156.536C170.616 155.71 171.246 155.276 172.478 154.842C173.71 155.29 174.34 155.696 174.34 156.536Z" fill="white"/>
<path opacity="0.9" d="M37.14 156.018C37.14 154.156 35.642 153.134 33.99 153.134C33.57 153.134 33.178 153.176 32.814 153.26V151.09H36.622V149.76H31.358V154.408H33.486C34.844 154.408 35.614 154.996 35.614 156.046C35.614 157.11 34.802 157.796 33.696 157.796C32.702 157.796 32.016 157.278 31.456 156.424L30.42 157.166C31.05 158.356 32.212 159.154 33.738 159.154C35.572 159.154 37.14 157.88 37.14 156.018ZM41.6803 157.712L43.3043 155.99C43.9483 155.304 44.4383 154.716 44.7603 154.198C45.0963 153.68 45.2643 153.106 45.2643 152.476C45.2643 150.852 43.9623 149.606 42.1983 149.606C40.3083 149.606 39.0903 151.048 39.0903 152.56C39.0903 152.84 39.1183 153.106 39.1883 153.358H40.6863C40.6443 153.078 40.6163 152.84 40.6163 152.644C40.6163 151.692 41.2463 150.964 42.1843 150.964C43.1223 150.964 43.7243 151.65 43.7243 152.588C43.7243 153.372 43.2763 154.044 42.2543 155.122L38.9643 158.664V159H45.5863V157.712H41.6803ZM54 152.812C54.042 150.992 52.488 149.578 50.738 149.606C48.974 149.606 47.462 150.992 47.462 152.798C47.462 154.548 48.904 155.892 50.486 155.892C50.64 155.892 50.766 155.878 50.892 155.85L48.666 159H50.43L52.726 155.738C53.048 155.29 53.286 154.94 53.44 154.688C53.594 154.422 53.734 154.142 53.832 153.834C53.944 153.512 54 153.176 54 152.812ZM52.53 152.798C52.53 153.316 52.362 153.75 52.012 154.1C51.662 154.45 51.242 154.632 50.738 154.632C50.22 154.632 49.786 154.464 49.436 154.114C49.086 153.764 48.918 153.316 48.918 152.798C48.918 152.28 49.086 151.846 49.436 151.496C49.786 151.146 50.22 150.964 50.738 150.964C51.242 150.964 51.662 151.146 52.012 151.496C52.362 151.846 52.53 152.28 52.53 152.798ZM62.7273 156.116H61.4673V153.274H59.9833V156.116H57.2253L59.8433 149.76H58.3173L55.3633 156.984V157.39H59.9833V159H61.4673V157.39H62.7273V156.116ZM71.2565 157.712L72.8805 155.99C73.5245 155.304 74.0145 154.716 74.3365 154.198C74.6725 153.68 74.8405 153.106 74.8405 152.476C74.8405 150.852 73.5385 149.606 71.7745 149.606C69.8845 149.606 68.6665 151.048 68.6665 152.56C68.6665 152.84 68.6945 153.106 68.7645 153.358H70.2625C70.2205 153.078 70.1925 152.84 70.1925 152.644C70.1925 151.692 70.8225 150.964 71.7605 150.964C72.6985 150.964 73.3005 151.65 73.3005 152.588C73.3005 153.372 72.8525 154.044 71.8305 155.122L68.5405 158.664V159H75.1625V157.712H71.2565ZM84.0242 156.116H82.7642V153.274H81.2802V156.116H78.5222L81.1402 149.76H79.6142L76.6602 156.984V157.39H81.2802V159H82.7642V157.39H84.0242V156.116ZM91.6855 156.032C91.6855 155.234 91.4475 154.59 90.9715 154.1C90.4955 153.61 89.9215 153.302 89.2355 153.19L91.4755 150.166V149.76H85.7215V151.118H89.1655L87.0095 154.016V154.422H88.0315C89.3895 154.422 90.1595 154.996 90.1595 156.046C90.1595 157.096 89.3755 157.796 88.2695 157.796C87.3175 157.796 86.6595 157.278 86.0995 156.424L85.0635 157.152C85.6795 158.342 86.8135 159.154 88.3115 159.154C90.1315 159.154 91.6855 157.908 91.6855 156.032ZM100.039 155.962C100.039 154.212 98.6111 152.868 97.0011 152.868C96.8471 152.868 96.7211 152.882 96.5951 152.91L98.8211 149.76H97.0711L94.7611 153.022C94.4391 153.484 94.2011 153.834 94.0471 154.086C93.8931 154.338 93.7671 154.618 93.6551 154.94C93.5571 155.248 93.5011 155.584 93.5011 155.948C93.4591 157.768 95.0131 159.182 96.7631 159.154C98.5271 159.154 100.039 157.768 100.039 155.962ZM98.5691 155.962C98.5691 156.48 98.3871 156.928 98.0371 157.278C97.6871 157.628 97.2671 157.796 96.7631 157.796C96.2451 157.796 95.8251 157.628 95.4751 157.278C95.1251 156.928 94.9571 156.48 94.9571 155.962C94.9571 155.444 95.1251 155.01 95.4751 154.66C95.8251 154.31 96.2451 154.128 96.7631 154.128C97.2671 154.128 97.6871 154.31 98.0371 154.66C98.3871 155.01 98.5691 155.444 98.5691 155.962ZM113.19 156.116H111.93V153.274H110.446V156.116H107.688L110.306 149.76H108.78L105.826 156.984V157.39H110.446V159H111.93V157.39H113.19V156.116ZM114.166 149.76V151.09H118.506L114.432 159H116.042L120.508 150.166V149.76H114.166ZM128.35 156.592C128.35 155.416 127.566 154.646 126.348 154.198C127.37 153.652 127.916 152.938 127.916 151.972C127.916 151.23 127.636 150.642 127.09 150.236C126.544 149.816 125.844 149.606 125.004 149.606C124.15 149.606 123.45 149.816 122.89 150.236C122.344 150.642 122.064 151.23 122.064 151.972C122.064 152.966 122.624 153.652 123.632 154.198C122.4 154.646 121.63 155.416 121.63 156.592C121.63 158.146 123.016 159.154 125.004 159.154C126.978 159.154 128.35 158.146 128.35 156.592ZM123.478 152.028C123.478 151.286 124.108 150.824 125.004 150.824C125.886 150.824 126.502 151.286 126.502 152.028C126.502 152.714 126.04 153.078 124.99 153.526C123.94 153.064 123.478 152.7 123.478 152.028ZM126.852 156.536C126.852 157.376 126.194 157.922 125.004 157.922C123.814 157.922 123.128 157.376 123.128 156.536C123.128 155.71 123.758 155.276 124.99 154.842C126.222 155.29 126.852 155.696 126.852 156.536ZM130.432 154.296C130.432 157.026 131.594 159.154 133.96 159.154C136.34 159.154 137.474 157.026 137.474 154.296C137.474 152.882 137.18 151.748 136.578 150.894C135.99 150.04 135.122 149.606 133.96 149.606C132.798 149.606 131.93 150.04 131.328 150.908C130.726 151.762 130.432 152.896 130.432 154.296ZM135.934 154.31C135.934 156.494 135.318 157.796 133.96 157.796C132.602 157.796 131.972 156.494 131.972 154.31C131.972 152.084 132.63 150.964 133.96 150.964C135.276 150.964 135.934 152.084 135.934 154.31ZM146.612 157.712L148.236 155.99C148.88 155.304 149.37 154.716 149.692 154.198C150.028 153.68 150.196 153.106 150.196 152.476C150.196 150.852 148.894 149.606 147.13 149.606C145.24 149.606 144.022 151.048 144.022 152.56C144.022 152.84 144.05 153.106 144.12 153.358H145.618C145.576 153.078 145.548 152.84 145.548 152.644C145.548 151.692 146.178 150.964 147.116 150.964C148.054 150.964 148.656 151.65 148.656 152.588C148.656 153.372 148.208 154.044 147.186 155.122L143.896 158.664V159H150.518V157.712H146.612ZM159.38 156.116H158.12V153.274H156.636V156.116H153.878L156.496 149.76H154.97L152.016 156.984V157.39H156.636V159H158.12V157.39H159.38V156.116ZM167.293 155.962C167.293 154.212 165.865 152.868 164.255 152.868C164.101 152.868 163.975 152.882 163.849 152.91L166.075 149.76H164.325L162.015 153.022C161.693 153.484 161.455 153.834 161.301 154.086C161.147 154.338 161.021 154.618 160.909 154.94C160.811 155.248 160.755 155.584 160.755 155.948C160.713 157.768 162.267 159.182 164.017 159.154C165.781 159.154 167.293 157.768 167.293 155.962ZM165.823 155.962C165.823 156.48 165.641 156.928 165.291 157.278C164.941 157.628 164.521 157.796 164.017 157.796C163.499 157.796 163.079 157.628 162.729 157.278C162.379 156.928 162.211 156.48 162.211 155.962C162.211 155.444 162.379 155.01 162.729 154.66C163.079 154.31 163.499 154.128 164.017 154.128C164.521 154.128 164.941 154.31 165.291 154.66C165.641 155.01 165.823 155.444 165.823 155.962ZM175.838 156.592C175.838 155.416 175.054 154.646 173.836 154.198C174.858 153.652 175.404 152.938 175.404 151.972C175.404 151.23 175.124 150.642 174.578 150.236C174.032 149.816 173.332 149.606 172.492 149.606C171.638 149.606 170.938 149.816 170.378 150.236C169.832 150.642 169.552 151.23 169.552 151.972C169.552 152.966 170.112 153.652 171.12 154.198C169.888 154.646 169.118 155.416 169.118 156.592C169.118 158.146 170.504 159.154 172.492 159.154C174.466 159.154 175.838 158.146 175.838 156.592ZM170.966 152.028C170.966 151.286 171.596 150.824 172.492 150.824C173.374 150.824 173.99 151.286 173.99 152.028C173.99 152.714 173.528 153.078 172.478 153.526C171.428 153.064 170.966 152.7 170.966 152.028ZM174.34 156.536C174.34 157.376 173.682 157.922 172.492 157.922C171.302 157.922 170.616 157.376 170.616 156.536C170.616 155.71 171.246 155.276 172.478 154.842C173.71 155.29 174.34 155.696 174.34 156.536Z" fill="white"/>
<path d="M256.417 27.9741H268.584V49.8366H256.417V27.9741Z" fill="#FF5F00"/>
<path d="M248.189 60.8409V58.5234C248.189 57.6348 247.648 57.0556 246.721 57.0556C246.258 57.0556 245.756 57.2101 245.408 57.7123C245.138 57.2873 244.751 57.0556 244.172 57.0556C243.786 57.0556 243.4 57.1714 243.09 57.5963V57.1328H242.279V60.8409H243.09V58.7937C243.09 58.1372 243.438 57.828 243.979 57.828C244.52 57.828 244.79 58.1757 244.79 58.7937V60.8409H245.601V58.7937C245.601 58.1372 245.987 57.828 246.49 57.828C247.03 57.828 247.301 58.1757 247.301 58.7937V60.8409H248.189ZM260.202 57.1328H258.889V56.0127H258.078V57.1328H257.344V57.8666H258.077V59.5663C258.077 60.4162 258.425 60.9182 259.352 60.9182C259.7 60.9182 260.086 60.8024 260.357 60.6479L260.125 59.9525C259.893 60.107 259.623 60.1457 259.429 60.1457C259.043 60.1457 258.889 59.914 258.889 59.5276V57.8666H260.202V57.1328ZM267.077 57.0554C266.614 57.0554 266.305 57.2873 266.112 57.5963V57.1328H265.301V60.8409H266.112V58.7551C266.112 58.1372 266.382 57.7895 266.884 57.7895C267.039 57.7895 267.232 57.8282 267.386 57.8668L267.618 57.0943C267.464 57.0556 267.232 57.0556 267.077 57.0556V57.0554ZM256.687 57.4418C256.301 57.1714 255.76 57.0556 255.18 57.0556C254.254 57.0556 253.636 57.5191 253.636 58.253C253.636 58.8711 254.099 59.2186 254.91 59.3346L255.296 59.3733C255.721 59.4503 255.953 59.5663 255.953 59.7595C255.953 60.0298 255.644 60.223 255.103 60.223C254.562 60.223 254.138 60.0298 253.867 59.8367L253.481 60.4547C253.906 60.7637 254.485 60.9182 255.064 60.9182C256.146 60.9182 256.764 60.4162 256.764 59.7208C256.764 59.0641 256.262 58.7164 255.489 58.6007L255.103 58.562C254.756 58.5232 254.485 58.4462 254.485 58.2144C254.485 57.944 254.756 57.7895 255.18 57.7895C255.644 57.7895 256.108 57.9825 256.339 58.0985L256.687 57.4418ZM278.241 57.0556C277.777 57.0556 277.468 57.2873 277.275 57.5963V57.1328H276.464V60.8409H277.275V58.7551C277.275 58.1372 277.545 57.7895 278.047 57.7895C278.202 57.7895 278.395 57.8282 278.549 57.8668L278.781 57.0943C278.627 57.0556 278.395 57.0556 278.241 57.0556ZM267.889 58.9869C267.889 60.107 268.661 60.9182 269.859 60.9182C270.399 60.9182 270.785 60.8024 271.172 60.4934L270.785 59.8367C270.477 60.0685 270.168 60.1843 269.82 60.1843C269.163 60.1843 268.7 59.7208 268.7 58.9869C268.7 58.2917 269.163 57.828 269.82 57.7895C270.168 57.7895 270.477 57.9053 270.785 58.1372L271.172 57.4805C270.785 57.1714 270.399 57.0556 269.859 57.0556C268.661 57.0556 267.889 57.8668 267.889 58.9869ZM275.382 58.9869V57.1328H274.571V57.5963C274.301 57.2488 273.914 57.0556 273.412 57.0556C272.369 57.0556 271.558 57.8668 271.558 58.9869C271.558 60.107 272.369 60.9182 273.412 60.9182C273.953 60.9182 274.339 60.7251 274.571 60.3774V60.8409H275.382V58.9869ZM272.408 58.9869C272.408 58.3302 272.833 57.7895 273.528 57.7895C274.185 57.7895 274.648 58.2917 274.648 58.9869C274.648 59.6435 274.185 60.1843 273.528 60.1843C272.833 60.1455 272.408 59.6435 272.408 58.9869ZM262.713 57.0556C261.631 57.0556 260.858 57.828 260.858 58.9869C260.858 60.1457 261.631 60.9182 262.751 60.9182C263.292 60.9182 263.833 60.7637 264.258 60.4162L263.871 59.8367C263.562 60.0685 263.176 60.223 262.79 60.223C262.288 60.223 261.786 59.9912 261.67 59.3344H264.412V59.0256C264.451 57.828 263.756 57.0556 262.713 57.0556H262.713ZM262.713 57.7508C263.215 57.7508 263.563 58.06 263.64 58.6394H261.708C261.786 58.1372 262.133 57.7508 262.713 57.7508ZM282.837 58.9869V55.665H282.026V57.5963C281.755 57.2488 281.369 57.0556 280.867 57.0556C279.824 57.0556 279.013 57.8668 279.013 58.9869C279.013 60.107 279.824 60.9182 280.867 60.9182C281.408 60.9182 281.794 60.7251 282.026 60.3774V60.8409H282.837V58.9869ZM279.863 58.9869C279.863 58.3302 280.288 57.7895 280.983 57.7895C281.64 57.7895 282.103 58.2917 282.103 58.9869C282.103 59.6435 281.64 60.1843 280.983 60.1843C280.288 60.1455 279.863 59.6435 279.863 58.9869ZM252.747 58.9869V57.1328H251.936V57.5963C251.665 57.2488 251.279 57.0556 250.777 57.0556C249.734 57.0556 248.923 57.8668 248.923 58.9869C248.923 60.107 249.734 60.9182 250.777 60.9182C251.318 60.9182 251.704 60.7251 251.936 60.3774V60.8409H252.747V58.9869ZM249.734 58.9869C249.734 58.3302 250.159 57.7895 250.854 57.7895C251.511 57.7895 251.975 58.2917 251.975 58.9869C251.975 59.6435 251.511 60.1843 250.854 60.1843C250.159 60.1455 249.734 59.6435 249.734 58.9869Z" fill="white"/>
<path d="M257.189 38.9055C257.189 34.4635 259.275 30.5236 262.48 27.9742C260.124 26.1201 257.15 25 253.906 25C246.219 25 240 31.2188 240 38.9055C240 46.5921 246.219 52.811 253.906 52.811C257.15 52.811 260.124 51.6909 262.48 49.8367C259.275 47.326 257.189 43.3475 257.189 38.9055Z" fill="#EB001B"/>
<path d="M285 38.9055C285 46.5921 278.781 52.811 271.094 52.811C267.849 52.811 264.875 51.6909 262.519 49.8367C265.764 47.2874 267.811 43.3475 267.811 38.9055C267.811 34.4635 265.725 30.5236 262.519 27.9742C264.875 26.1201 267.849 25 271.094 25C278.781 25 285 31.2575 285 38.9055H285Z" fill="#F79E1B"/>
<defs>
<linearGradient id="paint0_linear_213_74" x1="55.3965" y1="-29.0526" x2="88.5115" y2="228.882" gradientUnits="userSpaceOnUse">
<stop stop-color="#BE82DD"/>
<stop offset="1" stop-color="#B22AE3"/>
</linearGradient>
</defs>
</svg>
